<?xml version="1.0" encoding="utf-8"?>
<!-- Generator: Adobe Illustrator 21.0.2, SVG Export Plug-In . SVG Version: 6.00 Build 0)  -->
<svg version="1.1" id="Layer_1" xmlns="http://www.w3.org/2000/svg" xmlns:xlink="http://www.w3.org/1999/xlink" x="0px" y="0px"
	 viewBox="0 0 350 180" style="enable-background:new 0 0 350 180;" xml:space="preserve">
<style type="text/css">
	.st0{fill:#FFFFFF;}
	.st1{fill:#64D7D7;}
</style>
<g>
	<path class="st0" d="M52.8,116.6H44v-2.6c-3,2.2-6.7,3.4-11,3.4c-10,0-18-8.3-18-18.8C15,88.3,23,80,33,80c4.3,0,8,1.2,11,3.3V62.8
		h8.7V116.6z M44,104.8V92.5c-2.5-3.6-6-5-9.7-5c-6.1,0-10.6,5.2-10.6,11.1c0,6,4.5,11.2,10.6,11.2C38,109.9,41.5,108.5,44,104.8z"
		/>
	<path class="st0" d="M95.4,101L95.4,101H67.6c0.8,5.1,4.2,9,10.8,9c3.5,0,6-1.1,7.3-3.3H95c-2,6.6-8.6,11.1-16.8,11.1
		c-11.4,0-19.1-8.4-19.1-19c0-11,7.7-19.1,18.9-19.1c10.2,0,17.7,7.4,17.7,18.5C95.6,99.4,95.6,100.1,95.4,101z M67.8,95.6h19
		c-0.6-5.3-3.8-8.6-8.9-8.6C72.1,87.1,68.7,90.7,67.8,95.6z"/>
	<path class="st0" d="M107.5,104.6c0.8,4.2,3.9,6.1,8.8,6.1c4.2,0,7.2-1.5,7.2-3.9c0-1.9-1.5-3.3-4.3-3.8l-7.8-1.3
		c-5.5-1-10.6-3.8-10.6-10.3c0-7.2,6.1-11.5,15.1-11.5c6.1,0,15,2.1,15.8,11.9l-8.1,0.1c-0.3-3.6-3.6-5.2-7.7-5.2
		c-4.2,0-6.4,1.7-6.4,3.9c0,1.7,1.2,3.4,5.1,4.1l6.7,1.1c5.5,1,10.7,3.4,10.7,10.4c0,7.7-6.7,11.8-15.8,11.8
		c-8.2,0-15.8-3.4-16.6-13.3L107.5,104.6z"/>
	<path class="st0" d="M147.5,108.6v8h-8.7V62.8h8.7v34.3l15.8-16.3h11.1L160,95.6l16.4,21h-11.4l-11.1-14.7L147.5,108.6z"/>
	<path class="st0" d="M218.1,98.8c0,10.4-8,18.7-18,18.7c-4.3,0-8-1.2-10.9-3.3v20.5h-8.8V80.8h8.8v2.5c2.9-2.1,6.6-3.3,10.9-3.3
		C210,80,218.1,88.3,218.1,98.8z M209.3,98.8c0-6-4.4-11.2-10.6-11.2c-3.7,0-7.1,1.4-9.6,5v12.4c2.5,3.6,5.9,5,9.6,5
		C204.9,109.9,209.3,104.7,209.3,98.8z"/>
	<path class="st0" d="M260.3,80.8v35.9h-8.7v-2.5c-3,2.1-6.7,3.3-11,3.3c-10,0-18-8.3-18-18.7c0-10.5,8-18.8,18-18.8
		c4.3,0,8,1.2,11,3.3v-2.5H260.3z M251.6,104.8V92.6c-2.5-3.7-6-5.1-9.7-5.1c-6.1,0-10.6,5.2-10.6,11.2c0,5.9,4.5,11.1,10.6,11.1
		C245.6,109.9,249.1,108.5,251.6,104.8z"/>
	<path class="st0" d="M274.3,104.6c0.8,4.2,3.9,6.1,8.8,6.1c4.2,0,7.2-1.5,7.2-3.9c0-1.9-1.5-3.3-4.3-3.8l-7.8-1.3
		c-5.5-1-10.6-3.8-10.6-10.3c0-7.2,6.1-11.5,15.1-11.5c6.1,0,15,2.1,15.8,11.9l-8.1,0.1c-0.3-3.6-3.6-5.2-7.7-5.2
		c-4.2,0-6.4,1.7-6.4,3.9c0,1.7,1.2,3.4,5.1,4.1l6.7,1.1c5.5,1,10.7,3.4,10.7,10.4c0,7.7-6.7,11.8-15.8,11.8
		c-8.2,0-15.8-3.4-16.6-13.3L274.3,104.6z"/>
	<path class="st0" d="M310.7,104.6c0.8,4.2,3.9,6.1,8.8,6.1c4.2,0,7.2-1.5,7.2-3.9c0-1.9-1.5-3.3-4.3-3.8l-7.8-1.3
		c-5.5-1-10.6-3.8-10.6-10.3c0-7.2,6.1-11.5,15.1-11.5c6.1,0,15,2.1,15.8,11.9l-8.1,0.1c-0.3-3.6-3.6-5.2-7.7-5.2
		c-4.2,0-6.4,1.7-6.4,3.9c0,1.7,1.2,3.4,5.1,4.1l6.7,1.1c5.5,1,10.7,3.4,10.7,10.4c0,7.7-6.7,11.8-15.8,11.8
		c-8.2,0-15.8-3.4-16.6-13.3L310.7,104.6z"/>
	
		<rect x="91.4" y="-2" transform="matrix(8.524718e-11 1 -1 8.524718e-11 145.5094 -46.0112)" class="st1" width="8.7" height="103.5"/>
</g>
</svg>
