<?xml version="1.0" encoding="utf-8"?>
<!-- Generator: Adobe Illustrator 21.0.2, SVG Export Plug-In . SVG Version: 6.00 Build 0)  -->
<svg version="1.1" id="Layer_1" xmlns="http://www.w3.org/2000/svg" xmlns:xlink="http://www.w3.org/1999/xlink" x="0px" y="0px"
	 viewBox="0 0 350 180" style="enable-background:new 0 0 350 180;" xml:space="preserve">
<style type="text/css">
	.st0{fill:#FFFFFF;}
</style>
<g>
	<g>
		<path class="st0" d="M176.3,9.5c-4.2-4.2-14.2-1.1-22.2,6.9c-8.1,8-14.9,29.9-14.9,29.9s22-6.7,30.1-14.7
			C177.3,23.7,180.5,13.8,176.3,9.5z M137.4,46.5c0,0-4-12.6-8.6-17.3c-4.7-4.6-10.4-6.4-12.8-4c-2.4,2.4-0.6,8.1,4.1,12.8
			C124.7,42.6,137.4,46.5,137.4,46.5z M66.9,116.7c-17.1-0.9-19.3-2.8-19.3-6.8c0-2.1,0.9-3.6,1.9-4.7c4.1,1.7,9,2.8,14.3,2.8
			c18,0,31.2-12.2,31.2-29c0-4.1-1.3-7.7-3-10.9H97c0,0,3.7-10,13.8-16.2H75.9c-3.4-1.3-7.5-1.9-12-1.9c-18,0-31.2,12.2-31.2,29
			c0,7.3,2.8,13.7,7.3,18.6c-6.4,3-10.1,8.1-10.1,14.9c0,6.4,3.2,12.4,9.4,15.1c-8.8,3-14.3,8.7-14.3,19c0,15.1,14.1,25.8,40.2,25.8
			c27,0,38.9-11.9,38.9-28.4C104.2,128.2,94.5,118.2,66.9,116.7z M63.9,66.8c7.7,0,12.6,4.9,12.6,12.2c0,7.3-4.9,12.2-12.6,12.2
			c-7.7,0-12.6-4.9-12.6-12.2C51.3,71.7,56.2,66.8,63.9,66.8z M65.2,154.2c-13.3,0-20.3-3.6-20.3-9.6c0-6.8,6.2-9,16.9-9
			c16.9,0,21.2,3.2,21.2,9C83,150.4,77.8,154.2,65.2,154.2z M226.6,91.1c0,10.9-5.8,16.4-16,16.4c-8.8,0-13.1-4.9-13.1-13V51.8
			h-21.4V96c0,19.4,11.3,30.7,27.6,30.7c10.3,0,18.2-3.4,22.9-11.3v9.4H248V51.8h-21.4V91.1z M157.7,100.1l-0.3-0.3l-0.3,0.3
			c-1.3,1.4-2.5,2.5-3.8,3.4c-3.6,3-8,4.6-12.6,4.6c-10.8,0-19.6-8.8-19.6-19.6c0-8,4.8-15.1,12.3-18.1c2.2-1,4.5-1.5,7.1-1.5
			c2.6,0,5.2,0.5,7.7,1.5c0.3,0.1,0.5,0.2,0.8,0.3l0.1,0c0.2,0.1,0.3,0.1,0.5,0.2c0.5,0.3,1.1,0.6,1.6,0.9l0.1,0l0.1,0.1
			c0.3,0.2,0.5,0.3,0.8,0.5c1.4,1,2.8,2.1,3.9,3.4l0.3,0.4l0.3-0.3l14.1-13l0.3-0.3l-0.3-0.3c-7.6-8.8-17.5-13-30.9-13
			c-22.2,0-39,16.7-39,38.9c0,10.8,4,20.7,11.3,27.8c7.2,7.1,17.2,11,28.1,11c13.8,0,23.6-4.2,31.8-13.6l0.3-0.3l-0.3-0.3
			L157.7,100.1z M324.7,112.9l-14.1-12.8l-0.3-0.3l-0.3,0.3c-1.3,1.4-2.5,2.5-3.8,3.4c-3.6,3-8,4.6-12.6,4.6
			c-10.8,0-19.6-8.8-19.6-19.6c0-8,4.8-15.1,12.3-18.1c2.2-1,4.5-1.5,7.1-1.5c2.6,0,5.2,0.5,7.7,1.5c0.3,0.1,0.5,0.2,0.8,0.4l0.1,0
			c0.2,0.1,0.3,0.2,0.5,0.2c0.5,0.3,1.1,0.6,1.6,0.9l0.1,0l0.1,0.1c0.3,0.2,0.5,0.3,0.8,0.5c1.4,1,2.8,2.1,3.9,3.4l0.3,0.4l0.3-0.3
			l14.1-13l0.3-0.3l-0.3-0.3c-7.6-8.8-17.5-13-30.9-13c-22.2,0-39,16.7-39,38.9c0,10.8,4,20.7,11.3,27.8c7.2,7.1,17.2,11,28.1,11
			c13.8,0,23.6-4.2,31.8-13.6l0.3-0.3L324.7,112.9z"/>
	</g>
</g>
</svg>
