<?xml version="1.0" encoding="utf-8"?>
<!-- Generator: Adobe Illustrator 21.0.2, SVG Export Plug-In . SVG Version: 6.00 Build 0)  -->
<svg version="1.1" id="Layer_1" xmlns="http://www.w3.org/2000/svg" xmlns:xlink="http://www.w3.org/1999/xlink" x="0px" y="0px"
	 viewBox="0 0 381 70" style="enable-background:new 0 0 381 70;" xml:space="preserve">
<style type="text/css">
	.st0{fill:#FFFFFF;}
	.st1{fill:#64D7D7;}
</style>
<g>
	<g>
		<g>
			<path class="st0" d="M59.7,3.7c-1.7-1.7-5.6-0.4-8.8,2.7c-3.2,3.2-5.9,11.8-5.9,11.8s8.7-2.6,11.9-5.8
				C60.1,9.3,61.4,5.4,59.7,3.7z M44.4,18.3c0,0-1.6-5-3.4-6.8c-1.9-1.8-4.1-2.5-5.1-1.6c-0.9,0.9-0.2,3.2,1.6,5.1
				C39.3,16.8,44.4,18.3,44.4,18.3z M16.5,46c-6.7-0.4-7.6-1.1-7.6-2.7c0-0.8,0.4-1.4,0.7-1.9c1.6,0.7,3.6,1.1,5.6,1.1
				c7.1,0,12.3-4.8,12.3-11.4c0-1.6-0.5-3-1.2-4.3h2c0,0,1.5-3.9,5.4-6.4H20.1c-1.3-0.5-3-0.7-4.7-0.7C8.2,19.7,3,24.5,3,31.1
				c0,2.9,1.1,5.4,2.9,7.3c-2.5,1.2-4,3.2-4,5.9c0,2.5,1.3,4.9,3.7,6C2.2,51.5,0,53.8,0,57.8C0,63.8,5.6,68,15.9,68
				c10.7,0,15.3-4.7,15.3-11.2C31.3,50.6,27.4,46.6,16.5,46z M15.3,26.3c3,0,5,1.9,5,4.8c0,2.9-1.9,4.8-5,4.8s-5-1.9-5-4.8
				C10.4,28.3,12.3,26.3,15.3,26.3z M15.9,60.8c-5.2,0-8-1.4-8-3.8c0-2.7,2.4-3.6,6.7-3.6c6.7,0,8.4,1.3,8.4,3.6
				S20.8,60.8,15.9,60.8z M79.5,35.9c0,4.3-2.3,6.5-6.3,6.5c-3.5,0-5.2-1.9-5.2-5.1V20.4h-8.4v17.4c0,7.7,4.5,12.1,10.9,12.1
				c4.1,0,7.2-1.3,9-4.5v3.7H88V20.4h-8.4V35.9z M52.4,39.5l-0.1-0.1l-0.1,0.1c-0.5,0.6-1,1-1.5,1.3c-1.4,1.2-3.2,1.8-5,1.8
				c-4.3,0-7.7-3.5-7.7-7.7c0-3.2,1.9-6,4.9-7.1c0.9-0.4,1.8-0.6,2.8-0.6s2.1,0.2,3,0.6c0.1,0,0.2,0.1,0.3,0.1h0
				c0.1,0,0.1,0,0.2,0.1c0.2,0.1,0.4,0.2,0.6,0.4h0l0,0c0.1,0.1,0.2,0.1,0.3,0.2c0.6,0.4,1.1,0.8,1.5,1.3l0.1,0.2l0.1-0.1l5.6-5.1
				l0.1-0.1l-0.1-0.1c-3-3.5-6.9-5.1-12.2-5.1c-8.8,0-15.4,6.6-15.4,15.3c0,4.3,1.6,8.2,4.5,11c2.8,2.8,6.8,4.3,11.1,4.3
				c5.4,0,9.3-1.7,12.5-5.4l0.1-0.1L58,44.5L52.4,39.5z M118.3,44.5l-5.6-5.1l-0.1-0.1l-0.1,0.1c-0.5,0.6-1,1-1.5,1.3
				c-1.4,1.2-3.2,1.8-5,1.8c-4.3,0-7.7-3.5-7.7-7.7c0-3.2,1.9-6,4.9-7.1c0.9-0.4,1.8-0.6,2.8-0.6s2.1,0.2,3,0.6
				c0.1,0,0.2,0.1,0.3,0.2h0c0.1,0,0.1,0.1,0.2,0.1c0.2,0.1,0.4,0.2,0.6,0.4h0l0,0c0.1,0.1,0.2,0.1,0.3,0.2c0.6,0.4,1.1,0.8,1.5,1.3
				l0.1,0.2l0.1-0.1l5.6-5.1l0.1-0.1l-0.1-0.1c-3-3.5-6.9-5.1-12.2-5.1c-8.8,0-15.4,6.6-15.4,15.3c0,4.3,1.6,8.2,4.5,11
				c2.8,2.8,6.8,4.3,11.1,4.3c5.4,0,9.3-1.7,12.5-5.4l0.1-0.1L118.3,44.5z"/>
		</g>
	</g>
	<g>
		<path class="st0" d="M192.1,49.5h-5.8v-1.7c-2,1.5-4.4,2.3-7.3,2.3c-6.7,0-12-5.6-12-12.5c0-6.9,5.4-12.5,12-12.5
			c2.9,0,5.4,0.8,7.3,2.2V13.6h5.8V49.5z M186.3,41.6v-8.2c-1.7-2.4-4-3.3-6.5-3.3c-4.1,0-7.1,3.5-7.1,7.4c0,4,3,7.5,7.1,7.5
			C182.3,45,184.6,44.1,186.3,41.6z"/>
		<path class="st0" d="M220.5,39.1L220.5,39.1H202c0.5,3.4,2.8,6,7.2,6c2.3,0,4-0.8,4.8-2.2h6.2c-1.4,4.4-5.8,7.4-11.2,7.4
			c-7.6,0-12.7-5.6-12.7-12.7c0-7.3,5.1-12.7,12.6-12.7c6.8,0,11.8,4.9,11.8,12.3C220.7,38,220.6,38.5,220.5,39.1z M202.1,35.5h12.7
			c-0.4-3.5-2.5-5.7-5.9-5.7C205,29.8,202.7,32.2,202.1,35.5z"/>
		<path class="st0" d="M228.5,41.4c0.5,2.8,2.6,4,5.9,4c2.8,0,4.8-1,4.8-2.6c0-1.3-1-2.2-2.9-2.5l-5.2-0.9c-3.6-0.7-7.1-2.5-7.1-6.9
			c0-4.8,4.1-7.7,10.1-7.7c4.1,0,10,1.4,10.6,7.9l-5.4,0.1c-0.2-2.4-2.4-3.5-5.2-3.5c-2.8,0-4.3,1.2-4.3,2.6c0,1.2,0.8,2.3,3.4,2.7
			l4.4,0.7c3.6,0.7,7.1,2.3,7.1,6.9c0,5.1-4.5,7.9-10.5,7.9c-5.5,0-10.5-2.3-11.1-8.8L228.5,41.4z"/>
		<path class="st0" d="M255.2,44.1v5.4h-5.8V13.6h5.8v22.8l10.5-10.9h7.4l-9.6,9.9l11,14h-7.6l-7.4-9.8L255.2,44.1z"/>
		<path class="st0" d="M302.2,37.6c0,6.9-5.4,12.5-12,12.5c-2.9,0-5.4-0.8-7.3-2.2v13.6h-5.9V25.6h5.9v1.7c1.9-1.4,4.4-2.2,7.3-2.2
			C296.9,25,302.2,30.6,302.2,37.6z M296.4,37.6c0-4-2.9-7.5-7.1-7.5c-2.5,0-4.7,0.9-6.4,3.3v8.2c1.7,2.4,3.9,3.3,6.4,3.3
			C293.5,45,296.4,41.5,296.4,37.6z"/>
		<path class="st0" d="M330.3,25.6v23.9h-5.8v-1.7c-2,1.4-4.4,2.2-7.3,2.2c-6.7,0-12-5.6-12-12.5c0-7,5.4-12.5,12-12.5
			c2.9,0,5.4,0.8,7.3,2.2v-1.7H330.3z M324.5,41.6v-8.1c-1.7-2.5-4-3.4-6.5-3.4c-4.1,0-7.1,3.5-7.1,7.5c0,3.9,3,7.4,7.1,7.4
			C320.5,45,322.9,44.1,324.5,41.6z"/>
		<path class="st0" d="M339.7,41.4c0.5,2.8,2.6,4,5.9,4c2.8,0,4.8-1,4.8-2.6c0-1.3-1-2.2-2.9-2.5l-5.2-0.9c-3.6-0.7-7.1-2.5-7.1-6.9
			c0-4.8,4.1-7.7,10.1-7.7c4.1,0,10,1.4,10.6,7.9l-5.4,0.1c-0.2-2.4-2.4-3.5-5.2-3.5c-2.8,0-4.3,1.2-4.3,2.6c0,1.2,0.8,2.3,3.4,2.7
			l4.4,0.7c3.6,0.7,7.1,2.3,7.1,6.9c0,5.1-4.5,7.9-10.5,7.9c-5.5,0-10.5-2.3-11.1-8.8L339.7,41.4z"/>
		<path class="st0" d="M363.9,41.4c0.5,2.8,2.6,4,5.9,4c2.8,0,4.8-1,4.8-2.6c0-1.3-1-2.2-2.9-2.5l-5.2-0.9c-3.6-0.7-7.1-2.5-7.1-6.9
			c0-4.8,4.1-7.7,10-7.7c4.1,0,10,1.4,10.6,7.9l-5.4,0.1c-0.2-2.4-2.4-3.5-5.2-3.5c-2.8,0-4.3,1.2-4.3,2.6c0,1.2,0.8,2.3,3.4,2.7
			l4.4,0.7c3.6,0.7,7.1,2.3,7.1,6.9c0,5.1-4.5,7.9-10.5,7.9c-5.5,0-10.5-2.3-11.1-8.8L363.9,41.4z"/>
		
			<rect x="217.8" y="-29.6" transform="matrix(8.551097e-11 1 -1 8.551097e-11 225.6465 -215.8393)" class="st1" width="5.8" height="68.9"/>
	</g>
	<polygon class="st0" points="151.5,32.7 144.4,32.7 144.4,25.6 139.7,25.6 139.7,32.7 132.6,32.7 132.6,37.5 139.7,37.5 
		139.7,44.6 144.4,44.6 144.4,37.5 151.5,37.5 	"/>
</g>
</svg>
